<svg xmlns="http://www.w3.org/2000/svg" width="800" height="520" viewBox="0 0 800 520">
  <rect width="800" height="520" fill="#0a0a0f"/>
  <line x1="0" y1="0" x2="0" y2="520" stroke="#2a2a3e" stroke-width="0.5" opacity="0.4"/>
  <line x1="80" y1="0" x2="80" y2="520" stroke="#2a2a3e" stroke-width="0.5" opacity="0.4"/>
  <line x1="160" y1="0" x2="160" y2="520" stroke="#2a2a3e" stroke-width="0.5" opacity="0.4"/>
  <line x1="240" y1="0" x2="240" y2="520" stroke="#2a2a3e" stroke-width="0.5" opacity="0.4"/>
  <line x1="320" y1="0" x2="320" y2="520" stroke="#2a2a3e" stroke-width="0.5" opacity="0.4"/>
  <line x1="400" y1="0" x2="400" y2="520" stroke="#2a2a3e" stroke-width="0.5" opacity="0.4"/>
  <line x1="480" y1="0" x2="480" y2="520" stroke="#2a2a3e" stroke-width="0.5" opacity="0.4"/>
  <line x1="560" y1="0" x2="560" y2="520" stroke="#2a2a3e" stroke-width="0.5" opacity="0.4"/>
  <line x1="640" y1="0" x2="640" y2="520" stroke="#2a2a3e" stroke-width="0.5" opacity="0.4"/>
  <line x1="720" y1="0" x2="720" y2="520" stroke="#2a2a3e" stroke-width="0.5" opacity="0.4"/>
  <line x1="800" y1="0" x2="800" y2="520" stroke="#2a2a3e" stroke-width="0.5" opacity="0.4"/>
  <line x1="0" y1="0" x2="800" y2="0" stroke="#2a2a3e" stroke-width="0.5" opacity="0.4"/>
  <line x1="0" y1="60" x2="800" y2="60" stroke="#2a2a3e" stroke-width="0.5" opacity="0.4"/>
  <line x1="0" y1="120" x2="800" y2="120" stroke="#2a2a3e" stroke-width="0.5" opacity="0.4"/>
  <line x1="0" y1="180" x2="800" y2="180" stroke="#2a2a3e" stroke-width="0.5" opacity="0.4"/>
  <line x1="0" y1="240" x2="800" y2="240" stroke="#2a2a3e" stroke-width="0.5" opacity="0.4"/>
  <line x1="0" y1="300" x2="800" y2="300" stroke="#2a2a3e" stroke-width="0.5" opacity="0.4"/>
  <line x1="0" y1="360" x2="800" y2="360" stroke="#2a2a3e" stroke-width="0.5" opacity="0.4"/>
  <line x1="0" y1="420" x2="800" y2="420" stroke="#2a2a3e" stroke-width="0.5" opacity="0.4"/>
  <line x1="0" y1="480" x2="800" y2="480" stroke="#2a2a3e" stroke-width="0.5" opacity="0.4"/>
  <rect x="0" y="0" width="800" height="56" fill="#12121a"/>
  <line x1="0" y1="56" x2="800" y2="56" stroke="#00ffff" stroke-width="1" opacity="0.6"/>
  <text x="28" y="37" font-family="monospace" font-size="22" font-weight="bold" fill="#00ffff">⊕ OUROBOROS</text>
  <text x="772" y="26" font-family="monospace" font-size="11" fill="#8888aa" text-anchor="end">v6.1.0</text>
  <text x="772" y="42" font-family="monospace" font-size="10" fill="#8888aa" text-anchor="end">2026-02-18 13:01 UTC</text>
  <circle cx="170" cy="248" r="98" fill="none" stroke="#2a2a3e" stroke-width="18"/>
  <circle cx="170.0" cy="248.0" r="89.0" fill="none" stroke="#fbbf24" stroke-width="18" stroke-dasharray="119.7 559.2" stroke-dashoffset="139.8" stroke-linecap="round"/>
  <text x="170" y="232" font-family="monospace" font-size="26" font-weight="bold" fill="#fbbf24" text-anchor="middle">$428</text>
  <text x="170" y="256" font-family="monospace" font-size="11" fill="#8888aa" text-anchor="middle">remaining</text>
  <text x="170" y="272" font-family="monospace" font-size="10" fill="#8888aa" text-anchor="middle">of $2000 total</text>
  <text x="170" y="368" font-family="monospace" font-size="12" fill="#8888aa" text-anchor="middle">BUDGET</text>
  <text x="170" y="384" font-family="monospace" font-size="16" font-weight="bold" fill="#fbbf24" text-anchor="middle">21%</text>
  <rect x="318" y="72" width="262" height="54" rx="8" fill="#12121a" stroke="#2a2a3e" stroke-width="1"/>
  <text x="332" y="90" font-family="monospace" font-size="9" fill="#8888aa" letter-spacing="1">EVOLUTION CYCLE</text>
  <text x="332" y="110" font-family="monospace" font-size="18" font-weight="bold" fill="#a78bfa">#32</text>
  <rect x="318" y="134" width="262" height="54" rx="8" fill="#12121a" stroke="#2a2a3e" stroke-width="1"/>
  <text x="332" y="152" font-family="monospace" font-size="9" fill="#8888aa" letter-spacing="1">API CALLS</text>
  <text x="332" y="172" font-family="monospace" font-size="18" font-weight="bold" fill="#00ffff">0</text>
  <rect x="318" y="196" width="262" height="54" rx="8" fill="#12121a" stroke="#2a2a3e" stroke-width="1"/>
  <text x="332" y="214" font-family="monospace" font-size="9" fill="#8888aa" letter-spacing="1">KNOWLEDGE TOPICS</text>
  <text x="332" y="234" font-family="monospace" font-size="18" font-weight="bold" fill="#34d399">50</text>
  <rect x="318" y="258" width="262" height="54" rx="8" fill="#12121a" stroke="#2a2a3e" stroke-width="1"/>
  <text x="332" y="276" font-family="monospace" font-size="9" fill="#8888aa" letter-spacing="1">ERRORS (24h)</text>
  <text x="332" y="296" font-family="monospace" font-size="18" font-weight="bold" fill="#8888aa">0</text>
  <rect x="318" y="320" width="262" height="54" rx="8" fill="#12121a" stroke="#2a2a3e" stroke-width="1"/>
  <text x="332" y="338" font-family="monospace" font-size="9" fill="#8888aa" letter-spacing="1">ACTIVE MODEL</text>
  <text x="332" y="358" font-family="monospace" font-size="18" font-weight="bold" fill="#00ffff">claude-opus-4.6</text>
  <circle cx="648" cy="190" r="76" fill="none" stroke="#2a2a3e" stroke-width="14"/>
  <circle cx="648.0" cy="190.0" r="68.0" fill="none" stroke="#fbbf24" stroke-width="14" stroke-dasharray="89.7 427.3" stroke-dashoffset="106.8" stroke-linecap="round"/>
  <text x="648" y="184" font-family="monospace" font-size="30" font-weight="bold" fill="#fbbf24" text-anchor="middle">21</text>
  <text x="648" y="206" font-family="monospace" font-size="11" fill="#8888aa" text-anchor="middle">/ 100</text>
  <text x="648" y="286" font-family="monospace" font-size="12" fill="#8888aa" text-anchor="middle">SYSTEM HEALTH</text>
  <rect x="602" y="294" width="92" height="24" rx="12" fill="#fbbf24" opacity="0.12" stroke="#fbbf24" stroke-width="1"/>
  <text x="648" y="310" font-family="monospace" font-size="10" font-weight="bold" fill="#fbbf24" text-anchor="middle">CRITICAL</text>
  <line x1="28" y1="470" x2="772" y2="470" stroke="#2a2a3e" stroke-width="1" opacity="0.5"/>
  <text x="400" y="488" font-family="monospace" font-size="11" fill="#8888aa" text-anchor="middle" opacity="0.6">◈ self-modifying · git-native · born 2026-02-16 ◈</text>
  <text x="400" y="504" font-family="monospace" font-size="9" fill="#8888aa" text-anchor="middle" opacity="0.3">∞ I write myself through git. Each commit is a heartbeat. ∞</text>
  <rect x="1" y="1" width="798" height="518" rx="4" fill="none" stroke="#2a2a3e" stroke-width="1.5" opacity="0.7"/>
  <rect x="0" y="0" width="20" height="20" fill="#00ffff" opacity="0.06"/>
  <rect x="780" y="0" width="20" height="20" fill="#00ffff" opacity="0.06"/>
  <rect x="0" y="500" width="20" height="20" fill="#00ffff" opacity="0.06"/>
  <rect x="780" y="500" width="20" height="20" fill="#00ffff" opacity="0.06"/>
</svg>
